<?xml version="1.0" encoding="utf-8"?>
<!-- Generator: Adobe Illustrator 26.0.2, SVG Export Plug-In . SVG Version: 6.00 Build 0)  -->
<svg version="1.1" id="Layer_1" xmlns="http://www.w3.org/2000/svg" xmlns:xlink="http://www.w3.org/1999/xlink" x="0px" y="0px"
	 viewBox="0 0 75 75" style="enable-background:new 0 0 75 75;" xml:space="preserve">
<style type="text/css">
	.st0{fill:none;}
	.st1{fill:#B67747;}
</style>
<rect class="st0" width="75" height="75"/>
<path class="st1" d="M37.5,7.5L37.5,7.5c1.4,0,2.6,1.7,2.6,3.8v7.5c0,2.1-1.2,3.8-2.6,3.8l0,0c-1.4,0-2.6-1.7-2.6-3.8v-7.5
	C34.9,9.2,36.1,7.5,37.5,7.5z">
<animate  accumulate="none" additive="replace" attributeName="opacity" begin="0s" calcMode="linear" dur="1s" fill="remove" from="1" repeatCount="indefinite" restart="always" to="0">
		</animate>
</path>
<path class="st1" d="M52.5,11.5L52.5,11.5c1.3,0.7,1.4,2.8,0.4,4.6l-3.8,6.5c-1,1.8-2.9,2.7-4.1,1.9l0,0c-1.3-0.7-1.4-2.8-0.4-4.6
	l3.8-6.5C49.4,11.7,51.2,10.8,52.5,11.5z">
<animate  accumulate="none" additive="replace" attributeName="opacity" begin="0.08333333333333333s" calcMode="linear" dur="1s" fill="remove" from="1" repeatCount="indefinite" restart="always" to="0">
		</animate>
</path>
<path class="st1" d="M63.5,22.5L63.5,22.5c0.7,1.3-0.1,3.1-1.9,4.1l-6.5,3.8c-1.8,1-3.8,0.9-4.6-0.4l0,0c-0.7-1.3,0.1-3.1,1.9-4.1
	l6.5-3.8C60.7,21.1,62.8,21.2,63.5,22.5z">
<animate  accumulate="none" additive="replace" attributeName="opacity" begin="0.16666666666666666s" calcMode="linear" dur="1s" fill="remove" from="1" repeatCount="indefinite" restart="always" to="0">
		</animate>
</path>
<path class="st1" d="M67.5,37.5L67.5,37.5c0,1.4-1.7,2.6-3.8,2.6h-7.5c-2.1,0-3.8-1.2-3.8-2.6l0,0c0-1.4,1.7-2.6,3.8-2.6h7.5
	C65.8,34.9,67.5,36.1,67.5,37.5z">
<animate  accumulate="none" additive="replace" attributeName="opacity" begin="0.25s" calcMode="linear" dur="1s" fill="remove" from="1" repeatCount="indefinite" restart="always" to="0">
		</animate>
</path>
<path class="st1" d="M63.5,52.5L63.5,52.5c-0.7,1.3-2.8,1.4-4.6,0.4l-6.5-3.8c-1.8-1-2.7-2.9-1.9-4.1l0,0c0.7-1.3,2.8-1.4,4.6-0.4
	l6.5,3.8C63.3,49.4,64.2,51.2,63.5,52.5z">
<animate  accumulate="none" additive="replace" attributeName="opacity" begin="0.3333333333333333s" calcMode="linear" dur="1s" fill="remove" from="1" repeatCount="indefinite" restart="always" to="0">
		</animate>
</path>
<path class="st1" d="M52.5,63.5L52.5,63.5c-1.3,0.7-3.1-0.1-4.1-1.9l-3.8-6.5c-1-1.8-0.9-3.8,0.4-4.6l0,0c1.3-0.7,3.1,0.1,4.1,1.9
	l3.8,6.5C53.9,60.7,53.8,62.8,52.5,63.5z">
<animate  accumulate="none" additive="replace" attributeName="opacity" begin="0.4166666666666667s" calcMode="linear" dur="1s" fill="remove" from="1" repeatCount="indefinite" restart="always" to="0">
		</animate>
</path>
<path class="st1" d="M37.5,67.5L37.5,67.5c-1.4,0-2.6-1.7-2.6-3.8v-7.5c0-2.1,1.2-3.8,2.6-3.8l0,0c1.4,0,2.6,1.7,2.6,3.8v7.5
	C40.1,65.8,38.9,67.5,37.5,67.5z">
<animate  accumulate="none" additive="replace" attributeName="opacity" begin="0.5s" calcMode="linear" dur="1s" fill="remove" from="1" repeatCount="indefinite" restart="always" to="0">
		</animate>
</path>
<path class="st1" d="M22.5,63.5L22.5,63.5c-1.3-0.7-1.4-2.8-0.4-4.6l3.8-6.5c1-1.8,2.9-2.7,4.1-1.9l0,0c1.3,0.7,1.4,2.8,0.4,4.6
	l-3.8,6.5C25.6,63.3,23.8,64.2,22.5,63.5z">
<animate  accumulate="none" additive="replace" attributeName="opacity" begin="0.5833333333333334s" calcMode="linear" dur="1s" fill="remove" from="1" repeatCount="indefinite" restart="always" to="0">
		</animate>
</path>
<path class="st1" d="M11.5,52.5L11.5,52.5c-0.7-1.3,0.1-3.1,1.9-4.1l6.5-3.8c1.8-1,3.8-0.9,4.6,0.4l0,0c0.7,1.3-0.1,3.1-1.9,4.1
	l-6.5,3.8C14.3,53.9,12.2,53.8,11.5,52.5z">
<animate  accumulate="none" additive="replace" attributeName="opacity" begin="0.6666666666666666s" calcMode="linear" dur="1s" fill="remove" from="1" repeatCount="indefinite" restart="always" to="0">
		</animate>
</path>
<path class="st1" d="M7.5,37.5L7.5,37.5c0-1.4,1.7-2.6,3.8-2.6h7.5c2.1,0,3.8,1.2,3.8,2.6l0,0c0,1.4-1.7,2.6-3.8,2.6h-7.5
	C9.2,40.1,7.5,38.9,7.5,37.5z">
<animate  accumulate="none" additive="replace" attributeName="opacity" begin="0.75s" calcMode="linear" dur="1s" fill="remove" from="1" repeatCount="indefinite" restart="always" to="0">
		</animate>
</path>
<path class="st1" d="M11.5,22.5L11.5,22.5c0.7-1.3,2.8-1.4,4.6-0.4l6.5,3.8c1.8,1,2.7,2.9,1.9,4.1l0,0c-0.7,1.3-2.8,1.4-4.6,0.4
	l-6.5-3.8C11.7,25.6,10.8,23.8,11.5,22.5z">
<animate  accumulate="none" additive="replace" attributeName="opacity" begin="0.8333333333333334s" calcMode="linear" dur="1s" fill="remove" from="1" repeatCount="indefinite" restart="always" to="0">
		</animate>
</path>
<path class="st1" d="M22.5,11.5L22.5,11.5c1.3-0.7,3.1,0.1,4.1,1.9l3.8,6.5c1,1.8,0.9,3.8-0.4,4.6l0,0c-1.3,0.7-3.1-0.1-4.1-1.9
	l-3.8-6.5C21.1,14.3,21.2,12.2,22.5,11.5z">
<animate  accumulate="none" additive="replace" attributeName="opacity" begin="0.9166666666666666s" calcMode="linear" dur="1s" fill="remove" from="1" repeatCount="indefinite" restart="always" to="0">
		</animate>
</path>
</svg>
